<?xml version="1.0" standalone="no"?>
<!DOCTYPE svg PUBLIC "-//W3C//DTD SVG 20010904//EN"
 "http://www.w3.org/TR/2001/REC-SVG-20010904/DTD/svg10.dtd">
<svg version="1.0" xmlns="http://www.w3.org/2000/svg"
 width="120.25" height="80.25" viewBox="0 0 481.000000 321.000000"
 preserveAspectRatio="xMidYMid meet" fill="#FFFF">

<g transform="translate(0.000000,321.000000) scale(0.100000,-0.100000)"
fill="fill" stroke="none">
<path d="M297 3180 c-31 -25 -41 -63 -25 -95 7 -13 72 -67 143 -119 114 -84
135 -96 172 -96 38 0 47 -6 130 -87 48 -49 110 -121 137 -160 52 -77 53 -78
75 -64 11 7 10 16 -9 47 -41 68 -117 158 -194 232 -69 65 -76 76 -76 110 0 40
-15 59 -91 114 -205 150 -215 155 -262 118z m167 -99 c61 -44 121 -90 133
-103 21 -22 22 -26 7 -46 -8 -12 -21 -22 -28 -22 -16 0 -234 154 -258 182 -10
11 -18 24 -18 28 0 12 29 40 42 40 6 0 60 -36 122 -79z"/>
<path d="M890 2481 c0 -5 -3 -16 -6 -25 -4 -11 4 -17 30 -22 23 -4 36 -12 36
-22 0 -19 -88 -522 -95 -539 -2 -7 -15 -13 -29 -13 -27 0 -56 -24 -56 -46 0
-12 42 -14 268 -14 l268 0 23 73 c13 39 26 77 28 83 3 10 -56 40 -62 32 -1 -2
-18 -28 -37 -59 -41 -64 -54 -69 -191 -69 l-78 0 6 33 c3 17 14 77 23 132 15
81 21 100 35 99 9 0 40 -1 67 -2 l50 -2 0 -40 c0 -37 2 -40 28 -40 28 0 29 1
45 98 22 123 22 122 -9 122 -19 0 -28 -8 -39 -34 -14 -33 -17 -34 -77 -38 -35
-2 -65 -3 -67 -1 -2 2 4 49 13 105 28 164 18 148 95 148 36 0 82 -3 103 -6 34
-6 36 -9 43 -50 6 -40 9 -44 35 -44 31 0 32 3 44 108 l4 42 -249 0 c-145 0
-249 -4 -249 -9z"/>
<path d="M1650 2321 c-88 -27 -166 -96 -202 -179 -29 -68 -36 -189 -13 -247
34 -89 150 -129 267 -90 75 24 106 49 101 79 l-5 24 -41 -19 c-51 -22 -125
-25 -154 -4 -72 50 -46 288 39 360 32 27 95 34 116 13 7 -7 12 -34 12 -60 l0
-48 40 0 c33 0 40 4 45 23 16 72 25 113 25 124 0 25 -168 42 -230 24z"/>
<path d="M2129 2314 c-63 -19 -141 -91 -175 -161 -20 -41 -29 -75 -32 -133 -5
-94 8 -139 53 -179 91 -79 266 -60 362 41 70 73 110 227 84 323 -12 47 -61 97
-110 114 -45 15 -125 13 -182 -5z m140 -70 c26 -33 28 -127 6 -222 -28 -116
-71 -172 -135 -172 -71 0 -98 65 -80 188 24 157 72 232 150 232 30 0 43 -6 59
-26z"/>
<path d="M2617 2320 c-32 -4 -60 -10 -63 -13 -3 -2 -6 -17 -7 -33 -2 -23 3
-30 21 -32 28 -4 28 -12 -3 -187 -36 -205 -32 -192 -66 -199 -23 -4 -29 -11
-29 -31 l0 -25 121 0 120 0 -3 28 c-2 19 -9 28 -26 30 -17 3 -21 8 -17 25 2
12 16 89 30 172 15 82 27 150 28 151 23 18 95 44 121 44 73 0 79 -32 41 -244
-14 -77 -25 -141 -25 -143 0 -2 -8 -3 -18 -3 -23 0 -42 -19 -42 -42 0 -16 11
-18 121 -18 l120 0 -3 28 c-2 19 -9 28 -25 30 -13 2 -23 4 -23 6 0 1 11 65 25
142 33 183 33 254 1 291 -22 26 -30 28 -93 28 -66 -1 -83 -6 -196 -63 -4 -2
-6 11 -5 30 3 38 -7 41 -105 28z"/>
<path d="M3344 2309 c-113 -43 -194 -172 -194 -310 0 -80 15 -123 56 -160 79
-73 240 -60 342 25 117 100 149 335 56 418 -57 50 -170 62 -260 27z m151 -59
c59 -65 3 -344 -76 -386 -44 -22 -88 -15 -113 19 -46 63 -9 286 59 354 40 40
100 46 130 13z"/>
<path d="M4351 2261 c-6 -11 -11 -33 -11 -49 0 -16 -9 -85 -21 -153 -36 -210
-95 -385 -138 -408 -26 -14 -230 -57 -341 -71 -47 -6 -172 -14 -278 -17 -112
-4 -195 -10 -199 -16 -4 -7 77 -8 243 -3 360 10 519 28 596 67 43 22 74 80
113 215 31 107 77 366 73 413 -3 40 -22 51 -37 22z"/>
<path d="M0 2161 c0 -6 19 -11 43 -11 23 0 118 -5 212 -10 98 -6 173 -6 178
-1 5 5 5 11 0 14 -4 2 -104 8 -220 12 -152 5 -213 4 -213 -4z"/>
<path d="M10 1861 c8 -6 58 -11 110 -11 52 0 171 -5 265 -10 151 -9 207 -5
178 13 -18 11 -569 19 -553 8z"/>
<path d="M13 1559 c20 -11 801 -29 811 -19 6 6 4 11 -5 14 -21 8 -819 12 -806
5z"/>
<path d="M3223 1483 c-24 -2 -43 -8 -43 -13 0 -4 -3 -15 -6 -23 -4 -11 4 -17
25 -22 17 -4 31 -12 31 -18 0 -7 -23 -138 -50 -292 -27 -154 -50 -283 -50
-287 0 -3 -13 -9 -30 -13 -23 -5 -30 -12 -30 -31 0 -24 0 -24 115 -24 l115 0
0 25 c0 18 -7 26 -25 31 -14 3 -25 7 -25 9 0 1 4 25 10 54 7 40 18 58 46 84
61 54 59 55 95 -45 23 -65 29 -93 21 -96 -20 -6 -42 -32 -42 -48 0 -12 20 -14
118 -12 112 3 117 4 120 25 2 17 -3 24 -21 28 -19 5 -33 29 -75 134 -29 71
-52 133 -52 138 0 19 126 110 162 117 28 5 37 12 41 32 l4 25 -116 -3 c-109
-3 -116 -4 -119 -24 -2 -16 4 -23 28 -30 l30 -9 -104 -93 c-58 -50 -106 -92
-108 -92 -2 0 15 105 38 233 22 127 39 235 37 240 -4 7 -59 7 -140 0z"/>
<path d="M1350 1416 c0 -8 -3 -21 -6 -30 -5 -13 1 -16 29 -16 70 0 70 12 -16
-279 l-80 -269 -37 -6 c-34 -5 -50 -20 -50 -47 0 -5 56 -9 125 -9 l125 0 0 25
c0 21 -6 26 -40 31 -22 4 -40 9 -40 13 0 12 139 533 143 538 3 2 8 -24 12 -59
3 -35 20 -162 36 -284 16 -121 29 -223 29 -227 0 -4 21 -7 48 -7 l47 0 84 183
c47 100 106 232 133 292 41 93 48 105 48 75 0 -48 -30 -470 -36 -497 -3 -16
-14 -23 -43 -28 -31 -5 -40 -11 -44 -31 l-4 -24 143 0 144 0 0 25 c0 19 -7 26
-32 33 l-32 8 3 99 c1 55 6 173 10 263 8 180 9 182 72 182 33 0 37 3 41 30 l5
30 -137 0 -137 0 -96 -214 c-53 -117 -99 -225 -103 -240 -10 -40 -24 -31 -24
17 0 23 -9 123 -20 222 -11 99 -20 188 -20 198 0 15 -13 17 -140 17 -114 0
-140 -3 -140 -14z"/>
<path d="M4314 1338 c-34 -68 -50 -85 -85 -93 -22 -5 -29 -12 -29 -31 0 -19 5
-24 25 -24 14 0 25 -3 25 -7 0 -5 -14 -90 -32 -190 -29 -169 -30 -183 -15
-206 20 -31 67 -40 135 -27 62 11 122 35 122 49 0 33 -11 37 -61 27 -41 -8
-52 -7 -65 5 -14 14 -13 31 11 165 36 203 25 184 105 184 l68 0 4 35 4 35 -69
0 -68 0 6 48 c4 26 9 55 12 65 3 14 -2 17 -31 17 -33 0 -38 -4 -62 -52z"/>
<path d="M2365 1257 c-82 -21 -131 -49 -127 -72 6 -33 16 -36 58 -19 21 9 67
17 102 18 71 1 92 -14 92 -65 0 -48 -9 -59 -51 -59 -100 0 -197 -37 -247 -95
-28 -31 -32 -43 -32 -93 0 -50 4 -62 28 -85 37 -35 96 -44 160 -23 28 10 56
24 62 32 18 21 30 17 30 -11 0 -34 19 -39 93 -29 53 8 62 12 65 32 3 17 -2 22
-17 22 -27 0 -27 9 5 193 30 167 27 207 -17 240 -34 24 -135 31 -204 14z m101
-279 c-3 -18 -8 -53 -12 -77 -6 -39 -11 -45 -48 -62 -53 -24 -71 -24 -96 1
-24 24 -26 77 -4 109 21 29 89 60 133 61 32 0 33 -1 27 -32z"/>
<path d="M2802 1260 c-62 -9 -58 -7 -67 -42 -6 -23 -3 -28 19 -34 32 -8 32 -8
-2 -204 l-28 -155 -31 -9 c-21 -7 -33 -17 -36 -33 l-4 -23 143 0 c81 0 144 4
144 9 0 5 2 16 6 24 4 11 -7 16 -45 21 -36 5 -51 11 -51 22 0 28 41 249 50
271 12 28 71 46 131 41 54 -6 53 -7 65 75 l6 47 -31 0 c-45 0 -92 -22 -141
-66 l-41 -38 3 50 c3 56 1 57 -90 44z"/>
<path d="M3870 1255 c-123 -38 -214 -200 -197 -348 12 -93 62 -142 159 -153
87 -10 228 38 228 78 0 26 -14 29 -60 13 -56 -20 -120 -19 -149 1 -29 21 -51
72 -51 119 l0 35 149 0 149 0 12 51 c16 65 8 143 -16 170 -43 48 -133 62 -224
34z m110 -55 c15 -15 20 -33 20 -69 0 -80 -1 -81 -96 -81 -95 0 -99 5 -69 77
35 83 101 117 145 73z"/>
<path d="M65 1230 c74 -9 590 -28 885 -32 111 -2 176 1 178 7 1 6 -153 12
-440 16 -244 3 -499 9 -568 12 -93 4 -107 4 -55 -3z"/>
<path d="M4746 1178 c-3 -18 -13 -82 -22 -143 -21 -144 -65 -317 -98 -387 -33
-70 -61 -83 -229 -102 -492 -59 -1136 -80 -2202 -74 -464 3 -830 2 -817 -3 34
-13 32 -106 -5 -174 -54 -100 -24 -212 69 -265 160 -90 340 78 264 247 -15 34
-17 54 -12 105 l7 64 662 0 c364 0 804 4 979 8 l316 8 7 -76 c6 -60 4 -89 -10
-131 -28 -90 7 -180 87 -225 160 -90 340 78 264 248 -17 38 -18 48 -6 116 l12
74 117 6 c282 16 454 46 497 87 61 57 138 336 161 582 6 63 5 67 -15 67 -16 0
-22 -8 -26 -32z m-3107 -724 l34 -5 -7 -46 c-3 -26 -8 -48 -10 -50 -2 -3 -17
2 -33 10 -49 26 -95 30 -143 13 -25 -9 -48 -16 -52 -16 -9 0 -11 94 -2 102 6
6 158 0 213 -8z m2336 -32 c-9 -63 -15 -74 -34 -66 -92 39 -136 40 -200 3 -18
-11 -35 -18 -37 -16 -2 1 -6 28 -10 59 l-7 57 59 3 c33 2 99 3 147 3 l89 1 -7
-44z m-2359 -93 c99 -61 99 -207 0 -268 -44 -28 -118 -28 -162 0 -99 61 -100
205 -1 268 43 28 118 28 163 0z m2300 0 c47 -29 74 -77 74 -134 0 -89 -66
-155 -155 -155 -157 0 -215 204 -82 289 43 28 118 28 163 0z"/>
<path d="M85 859 c169 -14 840 -28 849 -19 6 6 4 11 -5 14 -8 2 -221 6 -474 8
-253 2 -420 1 -370 -3z"/>
<path d="M1308 483 c6 -2 18 -2 25 0 6 3 1 5 -13 5 -14 0 -19 -2 -12 -5z"/>
</g>
</svg>
